<svg width="256" height="198" viewBox="0 0 256 198" fill="none" xmlns="http://www.w3.org/2000/svg">
<g clip-path="url(#clip0_1030_1446)">
<path d="M147.526 187.102C169.037 183.34 173.226 154.375 153.703 144.649C68.3694 102.195 245.709 163.817 252.241 85.7245C256.216 37.9463 211.42 9.05228 122.395 4.08278C104.789 3.08888 85.7626 12.176 72.132 23.3218C58.6434 34.3257 42.741 58.5343 34.4349 73.7977C14.5569 110.217 9.09044 131.728 5.5408 149.192C1.84917 167.295 2.77208 171.2 11.9301 186.25C15.3378 191.788 108.693 200.236 147.526 187.102Z" fill="#EE9B00" stroke="#001219" stroke-width="7.09928" stroke-miterlimit="10"/>
<path d="M120.051 78.9767C130.637 78.9767 139.219 70.3949 139.219 59.8087C139.219 49.2225 130.637 40.6406 120.051 40.6406C109.465 40.6406 100.883 49.2225 100.883 59.8087C100.883 70.3949 109.465 78.9767 120.051 78.9767Z" fill="#001219" stroke="#001219" stroke-width="7.09928" stroke-miterlimit="10"/>
<path d="M247.125 102.763L233.707 78.9809L218.372 99.0008L205.949 78.9809L187.633 99.0008L175.777 75.4312L161.081 89.0619L153.414 71.2427" stroke="#001219" stroke-width="7.09928" stroke-miterlimit="10"/>
<path d="M126.011 69.6788C132.049 69.6788 136.944 64.0529 136.944 57.1131C136.944 50.1732 132.049 44.5474 126.011 44.5474C119.973 44.5474 115.078 50.1732 115.078 57.1131C115.078 64.0529 119.973 69.6788 126.011 69.6788Z" fill="#E9D8A6"/>
</g>
<defs>
<clipPath id="clip0_1030_1446">
<rect width="256" height="197.218" fill="white" transform="translate(0 0.391113)"/>
</clipPath>
</defs>
</svg>
